<?xml version="1.0" encoding="utf-8"?>
<!-- Svg Vector Icons : http://www.onlinewebfonts.com/icon -->
<!DOCTYPE svg PUBLIC "-//W3C//DTD SVG 1.1//EN" "http://www.w3.org/Graphics/SVG/1.1/DTD/svg11.dtd">
<svg version="1.1" xmlns="http://www.w3.org/2000/svg" xmlns:xlink="http://www.w3.org/1999/xlink" x="0px" y="0px" viewBox="0 0 256 256" enable-background="new 0 0 256 256" xml:space="preserve">
<metadata> Svg Vector Icons : http://www.onlinewebfonts.com/icon </metadata>
<g><g><g><path fill="#000000" d="M102.3,10.7c-3.1,1.6-3.1,3.8-0.1,10c4.3,9,6.3,16.1,6.8,23.6c0.5,7.3-1.1,14.5-3.8,17.8c-2.1,2.4-2.8,2.4-9,0.5c-3.1-1-6.9-2-8.4-2.1c-5.4-0.6-12.9,1.7-14.3,4.4c-1.1,2.1-0.8,3.6,0.9,6.2c1.9,2.8,3.3,6.6,3.9,10.6c0.6,4.2,0,6.9-2.3,9.7c-1,1.3-3,3.8-4.4,5.6c-3,3.7-5.3,8.3-6.5,12.9c-0.6,2.5-0.9,4.9-0.9,10.6c0,8.3,0.6,11.8,3.3,17.8c0.8,1.9,1.5,3.6,1.5,3.8c0,0.1-10.7,0.3-23.7,0.3c-22.8,0-23.8,0-26.2,1c-3.1,1.2-6.1,4-7.7,7.1c-1.2,2.3-1.2,2.4-1.3,18.7c-0.2,17.8,0,19.7,2.2,23.1c1.2,2,1.3,2.1,0.5,3.1c-0.5,0.6-1.2,2.2-1.8,3.5c-0.9,2.4-1,3.5-1,18.9c0,15.5,0,16.5,1,19c1.3,3.6,4.8,7.1,8.4,8.4l2.7,1h68.1c73.8,0,70.6,0.1,74-2.5l1.5-1.2l1.8,1.2c3.6,2.4,3.5,2.4,36.2,2.4c29.9,0,30.4,0,33-1c3.6-1.3,7.1-4.8,8.4-8.4c0.9-2.5,1-3.5,1-19c0-15.3,0-16.5-1-18.9c-0.5-1.4-1.3-3-1.8-3.5c-0.8-1-0.8-1.1,0.5-3.1c2.2-3.4,2.4-5.3,2.2-23.1c-0.1-16.3-0.1-16.4-1.3-18.7c-1.5-3.1-4.6-5.9-7.7-7.1c-2.4-0.9-3.5-1-23.3-1h-20.7l0.3-1.2c0.2-0.7,0.5-3.6,0.6-6.5c0.6-10.7-2.2-17.3-12.3-29.4c-2.3-2.8-4.6-5.9-5.1-6.8c-1.3-2.6-1.1-5.7,1.2-14.7c2.4-9.1,3-15.4,2.1-20c-1.6-7.5-6.6-13.2-15.6-17.7c-3-1.5-6-2.6-7.2-2.8c-1.8-0.2-2.2,0-3.5,1.1c-1.7,1.5-1.7,1.2-1.5,10.3c0.1,8.3-0.9,11.1-4.1,11.1c-3,0-3.1-0.5-2.1-7.5c1-7.1,1.1-15.2,0.2-18.8c-1-4.1-4.4-10.6-7.3-13.9c-7.5-8.7-19.3-14.5-31.1-15.3C104.5,9.9,103.5,10,102.3,10.7z M116.2,21.4c10.1,3.5,17.8,10.8,20.4,19.4c0.8,2.8,0.8,9.7,0,15.3c-1.1,6.8-0.9,10.4,0.5,13.2c2.1,4.1,5.7,5.9,11.5,5.9c7.3,0,11.6-5.1,12.8-15.2c0.3-2.3,0.6-4.2,0.6-4.3c0.2-0.3,2.3,1.2,4.4,3.1c5.1,4.6,5.5,9.3,1.9,22.9c-1.9,7.3-2.3,9.4-2.3,12.9c0,3.7,0.1,4.5,1.4,7.1c0.8,1.7,3.2,5.1,5.3,7.6s4.7,5.9,5.9,7.4c4.9,6.4,6.8,13.2,5.7,20.2c-0.9,5.9,0.3,5.3-12.6,5.3h-11.1l0.3-1.3c0.2-0.7,0.4-3.6,0.6-6.5c0.2-4.1,0-6-0.6-8.3c-1.6-6.3-5.5-11.9-11.2-16.2c-4.1-3-6.5-3.5-8.6-1.7c-1.4,1.2-1.4,0.7-1.1,9.3c0.1,3.4-0.5,5.3-2.2,6.7c-2,1.7-3.8,1.3-5.1-1.1c-1.3-2.5-1-5.2,1.3-10.5c2.9-6.5,3.6-9.4,3.9-15.3c0.2-4.1,0.1-5.4-0.7-8.1c-1.2-4.1-3.8-8-7.2-11.1c-3.8-3.4-5.1-4-7.3-3.4c-2.9,0.9-3.3,2-3.4,9c0,5.9,0,6.1-1.5,9c-1,1.9-3.5,5.4-7.3,9.7c-6.6,7.6-8.9,10.8-10.8,15c-3.1,6.9-3.9,16.5-2,23.5c0.2,0.8,0,1-1.3,1.3c-0.8,0.2-2.6,0.9-3.9,1.7l-2.4,1.3l-2.5-1.4c-1.4-0.8-3.5-1.5-4.9-1.7c-2.3-0.3-2.5-0.4-4-2.8c-3.8-5.9-5.2-11-5.3-18.9c-0.1-8.8,1.6-13.5,7.2-20.2c4.4-5.3,5.7-7.4,6.6-10.8c1.2-4.9,0.3-12.4-2.4-18.9c-0.6-1.4,2.9-1,9,1.1c8.4,2.8,12.1,2.4,16.7-1.9c8.3-7.6,10.1-25.5,4.4-42.4c-1-2.9-1.9-5.7-2.1-6.1C112.6,20.3,113,20.4,116.2,21.4z M128.7,97.5c-0.3,3.8-1.7,8.2-4.1,13.5c-2.2,4.7-2.7,8.4-1.8,12.3c2.1,8.9,8.6,13.1,16.5,10.7c3.4-1,6.5-4,8.5-8.1l1.5-3.1l1.3,2.9c1.7,3.8,2,8.5,0.8,13l-0.8,3.2h-21.4H108l-0.8-3c-0.6-2.4-0.8-4.1-0.6-8.1c0.3-8,2.1-11.6,10.7-21.5c6.9-7.9,9.1-11,10.3-14.9c0.5-1.6,0.6-1.7,1.1-1C128.8,94.1,128.9,95.7,128.7,97.5z M82.8,152.1c2.8,1.4,2.8,1.9,2.7,18.9l-0.1,15.5l-1.5,1.3l-1.5,1.3H52.9c-17.6,0-29.9-0.2-30.6-0.5c-0.6-0.2-1.5-1-2-1.7c-0.7-1.2-0.8-2.6-0.8-16.7c0-12,0.1-15.7,0.6-16.5c1.3-2.3,1.4-2.3,32.5-2.4C77.5,151.4,81.7,151.5,82.8,152.1z M233.8,152.1c2.8,1.2,2.8,1.2,2.8,18.3c0,14.2-0.1,15.6-0.8,16.7c-0.5,0.7-1.3,1.5-2,1.7c-0.7,0.3-26.8,0.5-68.4,0.5H97.9l-1.3-1.3l-1.3-1.3v-16c0-10,0.2-16.3,0.5-16.8c1.3-2.4-2-2.3,69.7-2.3C222,151.4,232.4,151.5,233.8,152.1z M159.3,200.1l1.4,1.2v16.3v16.2l-1.2,1.2c-0.8,0.8-1.8,1.3-3.5,1.5c-1.3,0.1-31.9,0.2-67.9,0.1l-65.6-0.1L21,235l-1.5-1.5l-0.1-14c-0.2-16.1,0-17.5,1.8-19.3l1.3-1.3h67.8h67.8L159.3,200.1z M234.9,200.2c1.8,1.8,1.9,3.2,1.8,19.3l-0.1,14L235,235l-1.5,1.5h-29.4c-16.1,0-30-0.1-30.7-0.4c-0.7-0.2-1.7-1-2.2-1.8c-0.9-1.4-0.9-2.4-0.9-16.3c0-15.4,0.1-16.8,2-18.2c0.9-0.7,3.3-0.8,31.1-0.8h30.1L234.9,200.2z"/></g></g></g>
</svg>