<?xml version="1.0" encoding="utf-8"?>
<!-- Svg Vector Icons : http://www.onlinewebfonts.com/icon -->
<!DOCTYPE svg PUBLIC "-//W3C//DTD SVG 1.1//EN" "http://www.w3.org/Graphics/SVG/1.1/DTD/svg11.dtd">
<svg version="1.1" xmlns="http://www.w3.org/2000/svg" xmlns:xlink="http://www.w3.org/1999/xlink" x="0px" y="0px" viewBox="0 0 256 256" enable-background="new 0 0 256 256" xml:space="preserve">
<metadata> Svg Vector Icons : http://www.onlinewebfonts.com/icon </metadata>
<g><g><g><path fill="#000000" d="M83.9,11.1c-1.1,0.5-2.7,1.8-3.3,2.7c-1.2,1.7-1.3,2.5-1.5,30.5C79,70.6,79,73.2,80,74.2c1,1.1,2.4,1.1,22.8,1.1h21.7v8.5v8.5h-9.7c-5.5,0-10.2,0.2-10.9,0.6c-1,0.6-1.1,1.3-1.1,7.9v7.3h-8.1h-8.1l-0.2-6.8c-0.1-4.7-0.4-7.2-1-7.9c-0.7-0.9-3.2-1-24.6-1c-20.8,0-23.9,0.1-24.7,1c-0.8,0.8-1,3.6-1,21.1c0,18.8,0.1,20.2,1.1,21.1c1,0.9,3.6,1,24.4,1c19.2,0,23.5-0.2,24.5-0.8c1-0.8,1.1-1.8,1.3-10.6l0.2-9.8l8,0.2l8,0.2l0.2,9.4c0.1,7.6,0.4,9.5,1.2,10.4c0.9,1,2.6,1.1,24.4,1.1c21.8,0,23.5-0.1,24.4-1.1c0.8-0.9,1-2.8,1.2-10.4l0.2-9.4l8-0.2l8-0.2l0.2,9.8c0.2,8.8,0.3,9.8,1.3,10.6c1,0.7,5.4,0.8,24.6,0.8c21.9,0,23.5-0.1,24.4-1.1s1-3.4,1-21.2c0-17.4-0.1-20.2-1-20.9c-0.8-0.8-3.9-1-24.8-1h-23.8l-0.9,1.3c-0.7,1-1,3-1,7.9v6.5h-8.2h-8.2v-7.3c0-6.5-0.1-7.3-1.2-7.9c-0.7-0.4-5.4-0.6-10.9-0.6h-9.7v-8.5v-8.5h20.8h20.9l0.9-1.3c0.8-1.2,1-5,1-28.9c0-27.4,0-27.6-1.3-30.3c-2.7-5.1-0.1-4.8-46.8-4.8C89.1,10,85.8,10.1,83.9,11.1z M158.1,26.1c1.6,1.1,1.8,3.6,0.3,5.2c-0.9,1-2.7,1.1-31.8,1.1c-27.9,0-31-0.1-32-1c-1.5-1.3-1.4-3.5,0.1-5c1.1-1.2,2-1.2,31.6-1.2C152.9,25.1,156.9,25.3,158.1,26.1z M159.5,40.3c0.7,0.7,1.2,1.8,1.2,2.4s-0.5,1.8-1.2,2.4c-1.2,1.2-2,1.2-31.9,1.2c-27.7,0-30.7-0.1-31.8-1c-1.3-1.2-1.4-3.7-0.1-5.1c0.9-1,2.7-1.1,31.8-1.1C157.5,39,158.3,39.1,159.5,40.3z M158.4,54c1.3,1.2,1.4,3.7,0.1,5.1c-0.9,1-2.7,1.1-32,1.1h-31l-0.9-1.3c-0.5-0.7-1-1.8-1-2.3c0-0.5,0.4-1.6,1-2.3l0.9-1.3h30.9C154.3,53,157.3,53.1,158.4,54z"/><path fill="#000000" d="M36.1,147.7c-1.3,0.9-1.3,0.9-1.3,21.1c0,16.4,0.2,20.3,0.8,21.3c0.8,1.1,1.8,1.1,24.6,1.1h23.7l1.1-1.5c1-1.3,1.1-2.5,1.1-11.3v-9.9h8.2h8.2l0.1,10.7l0.2,10.7l1.5,0.8c2.2,1.1,45,1.1,47.2,0l1.5-0.8l0.2-10.7l0.1-10.7h8.2h8.2v9.9c0,8.8,0.1,10,1.2,11.3l1.1,1.5h23.7c22.8,0,23.7-0.1,24.6-1.1c0.7-1,0.8-4.9,0.8-21.3c0-20.2,0-20.2-1.3-21.1c-1.1-0.8-4.5-1-24.4-1h-23.2l-1.2,1.6c-1.1,1.4-1.3,2.5-1.3,7.3v5.7l-8-0.2l-8-0.2l-0.2-6.1c-0.1-5.3-0.3-6.2-1.4-7.1c-1.1-0.9-3.3-1-24.1-1s-23,0.1-24.1,1c-1.1,1-1.3,1.9-1.4,7.1l-0.2,6.1l-8,0.2l-8,0.2v-5.7c0-4.8-0.2-5.9-1.3-7.3l-1.2-1.6H60.6C40.7,146.8,37.3,146.9,36.1,147.7z"/><path fill="#000000" d="M35.8,202.8c-0.8,0.8-1,3.6-1,21.1c0,18.8,0.1,20.2,1.1,21.1c1,0.9,3.6,1,24.4,1c19.2,0,23.5-0.2,24.5-0.8c1-0.8,1.1-1.8,1.3-12.1l0.2-11.3h8.2h8.1v11.1c0,10,0.1,11.3,1.1,12.1c1,0.9,3.6,1,24.4,1c21.8,0,23.4-0.1,24.3-1.1c0.9-1,1-2.7,1-12.1v-11h8.2h8.2v10.3c0,10,0.4,12.2,2.1,13.4c0.4,0.2,11.2,0.5,24,0.5c21.8,0,23.4-0.1,24.3-1.1c0.9-1,1-3.4,1-21.2c0-17.4-0.1-20.2-1-20.9c-0.8-0.8-3.9-1-24.7-1h-23.8l-0.9,1.3c-0.7,1-1,2.8-1,6.4v5l-8-0.2l-8-0.2l-0.2-5.4c-0.1-4.2-0.4-5.6-1.2-6.2c-1.5-1.1-48.2-1.1-49.1,0.1c-0.4,0.4-0.7,3.2-0.8,6.2l-0.2,5.4l-8,0.2l-8,0.2v-5c0-3.6-0.3-5.4-1-6.4l-0.9-1.3H60.5C39.7,201.8,36.6,201.9,35.8,202.8z"/></g></g></g>
</svg>