<?xml version="1.0" encoding="utf-8"?>
<!-- Svg Vector Icons : http://www.onlinewebfonts.com/icon -->
<!DOCTYPE svg PUBLIC "-//W3C//DTD SVG 1.1//EN" "http://www.w3.org/Graphics/SVG/1.1/DTD/svg11.dtd">
<svg version="1.1" xmlns="http://www.w3.org/2000/svg" xmlns:xlink="http://www.w3.org/1999/xlink" x="0px" y="0px" viewBox="0 0 256 256" enable-background="new 0 0 256 256" xml:space="preserve">
<metadata> Svg Vector Icons : http://www.onlinewebfonts.com/icon </metadata>
<g><g><path fill="#000000" d="M217,10H39c-6.7,0-12.1,5.4-12.1,12v76.2c0,6.6,5.4,12,12.1,12H217c6.7,0,12.2-5.4,12.2-12V22C229.1,15.4,223.7,10,217,10z M78.2,84.9c0,2.7-2.5,5-5.5,5c-3,0-5.5-2.2-5.5-5V35.3c0-2.7,2.5-5,5.5-5c3,0,5.5,2.2,5.5,5V84.9z M114,84.9c0,2.7-2.5,5-5.5,5c-3,0-5.5-2.2-5.5-5V35.3c0-2.7,2.5-5,5.5-5c3,0,5.5,2.2,5.5,5V84.9z M149.7,84.9c0,2.7-2.5,5-5.5,5c-3,0-5.5-2.2-5.5-5V35.3c0-2.7,2.5-5,5.5-5c3,0,5.5,2.2,5.5,5V84.9z M185.5,84.9c0,2.7-2.5,5-5.5,5c-3,0-5.5-2.2-5.5-5V35.3c0-2.7,2.5-5,5.5-5c3,0,5.5,2.2,5.5,5V84.9z M220.5,229h-185c-4.8,0-8.6,3.8-8.6,8.5c0,4.7,3.9,8.5,8.6,8.5h185c4.7,0,8.6-3.8,8.6-8.5S225.3,229,220.5,229 M217,119.6H39c-6.7,0-12.1,5.4-12.1,12v76.2c0,6.6,5.4,12,12.1,12H217c6.7,0,12.2-5.4,12.2-12v-76.2C229.1,124.9,223.7,119.6,217,119.6z M78.2,194.5c0,2.7-2.5,5-5.5,5c-3,0-5.5-2.2-5.5-5v-49.6c0-2.7,2.5-5,5.5-5c3,0,5.5,2.2,5.5,5V194.5z M114,194.5c0,2.7-2.5,5-5.5,5c-3,0-5.5-2.2-5.5-5v-49.6c0-2.7,2.5-5,5.5-5c3,0,5.5,2.2,5.5,5V194.5z M149.7,194.5c0,2.7-2.5,5-5.5,5c-3,0-5.5-2.2-5.5-5v-49.6c0-2.7,2.5-5,5.5-5c3,0,5.5,2.2,5.5,5V194.5z M185.5,194.5c0,2.7-2.5,5-5.5,5c-3,0-5.5-2.2-5.5-5v-49.6c0-2.7,2.5-5,5.5-5c3,0,5.5,2.2,5.5,5V194.5z"/></g></g>
</svg>