<?xml version="1.0" encoding="utf-8"?>
<!-- Svg Vector Icons : http://www.onlinewebfonts.com/icon -->
<!DOCTYPE svg PUBLIC "-//W3C//DTD SVG 1.1//EN" "http://www.w3.org/Graphics/SVG/1.1/DTD/svg11.dtd">
<svg version="1.1" xmlns="http://www.w3.org/2000/svg" xmlns:xlink="http://www.w3.org/1999/xlink" x="0px" y="0px" viewBox="0 0 256 256" enable-background="new 0 0 256 256" xml:space="preserve">
<metadata> Svg Vector Icons : http://www.onlinewebfonts.com/icon </metadata>
<g><g><g><path fill="#000000" d="M95.4,11c-4.6,1.2-9.4,4-13.4,7.8c-3.5,3.4-3.7,3.5-19.3,34.8C48,82.8,47,85.1,47,87.9c0,3.7,1.5,6.2,4.8,7.9C54,97,54.1,97,128,97c73.7,0,74,0,76.2-1.2c3.2-1.7,4.4-3.6,4.7-7.4l0.2-3.3l-15.7-31.5c-15.7-31.3-15.8-31.5-19.3-34.9c-4.1-3.8-8.9-6.6-13.7-7.8C155.6,9.7,100,9.7,95.4,11z"/><path fill="#000000" d="M40.9,116.1l0.2,18l1.6,3.2c1.9,3.9,5.7,7.4,9.6,8.7c2.8,1,7,1,75.8,1c68.7,0,73-0.1,75.8-1c3.9-1.4,7.6-4.8,9.6-8.7l1.6-3.2l0.2-18l0.2-18l-1.3,2.5c-1.4,2.8-3.9,4.7-7.1,5.6C204,107,52,107,49.2,106.2c-3.2-0.9-5.7-2.9-7.1-5.6l-1.3-2.5L40.9,116.1z M202.1,124c0.9,0.8,1.8,2.1,2,2.9c0.4,2-0.8,5-2.3,5.7c-0.7,0.3-4.4,0.6-8.7,0.6h-7.6l-1.5-1.7c-1.5-1.8-1.9-4.3-0.9-6.1c1.2-2.2,3.3-2.8,10.5-2.8C200.1,122.5,200.6,122.6,202.1,124z"/><path fill="#000000" d="M41,166.1l0.1,18l1.5,2.8c1.9,3.7,5.7,7.1,9.2,8.5c2.6,1,5.3,1.1,76.4,1.1H202l2.6-1.2c3.7-1.7,7.4-5.3,8.9-8.8c1.3-2.9,1.4-3.4,1.5-20.6c0.1-15.2,0.1-17.5-0.6-16c-1,2.4-4.4,5.2-6.9,5.8c-3,0.8-156,0.8-158.9,0c-2.5-0.7-5.9-3.5-6.9-5.8C40.9,148.4,40.8,150.6,41,166.1z M200.9,172.9c1.4,0.6,2.2,1.4,2.8,2.8c0.8,1.9,0.7,2.2-0.2,4.1c-0.6,1.1-1.6,2.4-2.4,2.8c-1.7,0.9-12.7,1-15.1,0.1c-4.6-1.6-4.7-8.2-0.1-10C188.2,171.8,198.6,171.9,200.9,172.9z"/><path fill="#000000" d="M40.9,215.6c0.2,17.6,0.2,18.1,1.5,20.6c1.7,3.4,4.9,6.7,8.4,8.4l2.6,1.4H128h74.5l2.6-1.3c3.4-1.7,6.4-4.7,8.3-8.3l1.5-2.8l0.2-18l0.2-18l-1.3,2.5c-1,1.9-2,2.9-4.3,4.1l-3,1.6H128H49.4l-3-1.6c-2.2-1.1-3.3-2.1-4.3-4.1l-1.3-2.5L40.9,215.6z M201.8,222.7c1.5,0.8,2.7,3.8,2.3,5.7c-0.2,0.8-1.1,2.2-2,3c-1.7,1.4-1.9,1.4-9.3,1.2c-7.5-0.2-7.5-0.2-8.9-1.7c-1.8-2.1-1.8-4.8,0.1-7.1l1.5-1.7h7.6C197.4,222.1,201.1,222.4,201.8,222.7z"/></g></g></g>
</svg>