<?xml version="1.0" encoding="utf-8"?>
<!-- Svg Vector Icons : http://www.onlinewebfonts.com/icon -->
<!DOCTYPE svg PUBLIC "-//W3C//DTD SVG 1.1//EN" "http://www.w3.org/Graphics/SVG/1.1/DTD/svg11.dtd">
<svg version="1.1" xmlns="http://www.w3.org/2000/svg" xmlns:xlink="http://www.w3.org/1999/xlink" x="0px" y="0px" viewBox="0 0 256 256" enable-background="new 0 0 256 256" xml:space="preserve">
<metadata> Svg Vector Icons : http://www.onlinewebfonts.com/icon </metadata>
<g><g><g><path fill="#000000" d="M115.1,10.3c-28,1.9-46.7,6.5-54.3,13.3c-4.1,3.7-4.2,7.1-0.1,11c7.1,6.6,25.7,11.5,51,13.3c9.8,0.7,32.6,0.3,41.3-0.7c24.4-2.8,41.1-8.4,44.5-15.1c0.9-1.7,0.9-4.2,0-5.9c-3.1-6-20-12-41-14.5C144.5,10.2,125.4,9.6,115.1,10.3z"/><path fill="#000000" d="M49.9,43c-0.7,0.8-0.8,2.7-0.8,24.1c0,26.5-0.2,24.8,4.3,28.9c7.2,6.6,24,11.7,47.4,14.2c9.1,1,33.3,1.4,42.2,0.7c31.5-2.5,56.4-11.5,62.8-22.8c1-1.8,1-2.1,1-23.7c0-12-0.1-21.9-0.3-21.8c-0.2,0-1,1-1.8,2.2c-8.5,13.2-48.6,21.9-89.2,19.5C93.9,63.1,75.4,59,63.2,53.1c-6.2-3-9.5-5.9-12-10.1C50.8,42.2,50.7,42.2,49.9,43z"/><path fill="#000000" d="M50,108c-0.8,1-0.8,2.9-0.8,24.1c0,26.5-0.2,24.9,4.6,29.3c7.5,6.9,25.6,12.7,47.6,15.3c26.6,3,52.5,1.2,75-5.5c13.6-4.1,26.1-10.4,29.5-15l1-1.4l-0.1-23.8l-0.1-23.8l-1.6,2.4c-6.5,9.7-28.9,17.2-58.2,19.5c-9.2,0.7-34.5,0.3-42.6-0.7c-23.1-2.9-39.5-7.9-47.7-14.6c-3.1-2.5-4-3.5-4.9-5.4c-0.4-0.8-0.7-1.5-0.8-1.5C50.8,106.8,50.4,107.3,50,108z"/><path fill="#000000" d="M204.1,174.8c-2.9,6.9-12.5,12.8-26.6,16.3c-10.7,2.7-21.1,4-37.6,4.7c-32.6,1.4-64.1-3.4-80.1-12.3c-3.6-2-8-6.1-8.9-8.1c-0.6-1.3-0.6-1.3-1.2-0.6c-0.5,0.6-0.6,5.5-0.6,24.3c0,27-0.2,25.5,4.4,29.8c16,14.6,68.1,21.3,110.2,14.1c20.7-3.6,35.8-10.1,40.2-17.6c0.7-1.3,1.5-2,2.1-2c0.8,0,0.9-0.7,0.9-23.4c0-14.5-0.2-23.6-0.5-23.9c-0.2-0.2-0.6-1.2-0.8-2.2l-0.4-1.8L204.1,174.8z"/></g></g></g>
</svg>