<?xml version="1.0" encoding="utf-8"?>
<!-- Svg Vector Icons : http://www.onlinewebfonts.com/icon -->
<!DOCTYPE svg PUBLIC "-//W3C//DTD SVG 1.1//EN" "http://www.w3.org/Graphics/SVG/1.1/DTD/svg11.dtd">
<svg version="1.1" xmlns="http://www.w3.org/2000/svg" xmlns:xlink="http://www.w3.org/1999/xlink" x="0px" y="0px" viewBox="0 0 256 256" enable-background="new 0 0 256 256" xml:space="preserve">
<metadata> Svg Vector Icons : http://www.onlinewebfonts.com/icon </metadata>
<g><g><g><path fill="#000000" d="M86.6,72.2v26.5h17.8h17.8v11.8v11.8H84H45.7v17.6v17.6H27.8H10v26.5v26.5h41.4h41.4l-0.1-26.4l-0.2-26.3l-17.7-0.2l-17.7-0.1v-11.8v-11.8H128h70.8v11.8v11.8l-17.7,0.1l-17.7,0.2l-0.2,26.3l-0.1,26.4h41.4H246v-26.5v-26.5h-17.8h-17.8v-17.6v-17.6H172h-38.3v-11.8V98.6h17.8h17.8V72.2V45.7H128H86.6V72.2z"/></g></g></g>
</svg>