<?xml version="1.0" encoding="utf-8"?>
<!-- Svg Vector Icons : http://www.onlinewebfonts.com/icon -->
<!DOCTYPE svg PUBLIC "-//W3C//DTD SVG 1.1//EN" "http://www.w3.org/Graphics/SVG/1.1/DTD/svg11.dtd">
<svg version="1.1" xmlns="http://www.w3.org/2000/svg" xmlns:xlink="http://www.w3.org/1999/xlink" x="0px" y="0px" viewBox="0 0 256 256" enable-background="new 0 0 256 256" xml:space="preserve">
<metadata> Svg Vector Icons : http://www.onlinewebfonts.com/icon </metadata>
<g><g><path fill="#000000" d="M10,10h236v72H10V10z M124.5,24.3v42.4h13.9V24.3H124.5L124.5,24.3z M154.2,24.3v42.4h13.9V24.3H154.2L154.2,24.3z M184,24.3v42.4H198V24.3H184L184,24.3z M213.8,24.3v42.4h13.9V24.3H213.8L213.8,24.3z"/><path fill="#000000" d="M10,92h236v72H10V92z M124.5,106.3v42.4h13.9v-42.4H124.5L124.5,106.3z M154.2,106.3v42.4h13.9v-42.4H154.2L154.2,106.3z M184,106.3v42.4H198v-42.4H184L184,106.3z M213.8,106.3v42.4h13.9v-42.4H213.8L213.8,106.3z"/><path fill="#000000" d="M10,174h236v72H10V174z M124.5,188.3v42.4h13.9v-42.4H124.5L124.5,188.3z M154.2,188.3v42.4h13.9v-42.4H154.2L154.2,188.3z M184,188.3v42.4H198v-42.4H184L184,188.3z M213.8,188.3v42.4h13.9v-42.4H213.8L213.8,188.3z"/></g></g>
</svg>