<?xml version="1.0" encoding="utf-8"?>
<!-- Svg Vector Icons : http://www.onlinewebfonts.com/icon -->
<!DOCTYPE svg PUBLIC "-//W3C//DTD SVG 1.1//EN" "http://www.w3.org/Graphics/SVG/1.1/DTD/svg11.dtd">
<svg version="1.1" xmlns="http://www.w3.org/2000/svg" xmlns:xlink="http://www.w3.org/1999/xlink" x="0px" y="0px" viewBox="0 0 256 256" enable-background="new 0 0 256 256" xml:space="preserve">
<metadata> Svg Vector Icons : http://www.onlinewebfonts.com/icon </metadata>
<g><g><g><path fill="#000000" d="M110.3,34.8c-34,2.6-67.1,13.6-92.4,30.5C11.8,69.3,10,72,10,77c0,3.2,0.8,5.4,2.9,7.8c2.7,3,6.6,4.4,10.8,3.8c1.4-0.2,3.7-1.4,7.7-4c20.2-13.1,45.1-21.7,72.7-25.3c9.1-1.2,31.8-1.2,41.3,0c26,3.2,49.8,10.7,73.9,23.3c4.2,2.2,8.6,4.5,9.9,5.2c6.1,3.2,13.9,0.1,16.2-6.5c1.5-4.2,0.3-9.6-2.8-12.5c-2.8-2.5-23.1-12.8-34.5-17.4c-21.2-8.6-41-13.7-62.5-16C137.8,34.6,117.6,34.2,110.3,34.8z"/><path fill="#000000" d="M115.6,86c-20.5,1.4-39.9,6.7-58,15.7c-10.9,5.5-17,9.8-19,13.6c-1.4,2.6-1.4,7.6,0,10.2c2.6,5,8.1,7.6,13.3,6.3c1.2-0.3,4-1.8,6.4-3.3c5.1-3.3,15.5-8.5,21.6-10.7c31.4-11.6,65.6-10.8,98.6,2.3c3.6,1.4,10.7,4.7,15.9,7.3c9.2,4.7,9.6,4.8,12.5,4.8c3.7,0,6-1,8.5-3.5c2.3-2.4,3.1-4.6,3.1-8.1c0-5.4-2.1-8.1-8.5-11.6c-19.6-10.7-38-17.3-57.8-20.9C141.5,86.2,125.9,85.3,115.6,86z"/><path fill="#000000" d="M112.6,138c-14.2,2-29.8,7.6-40.3,14.5c-5.3,3.5-7.2,6.5-7.3,11.1c0,4.4,2.2,8.2,6.1,10.4c2,1.1,3,1.3,5.4,1.3c3.3,0,4.2-0.4,11.1-4.5c13-7.9,32.1-11.5,49.1-9.3c10.9,1.4,20.2,4.4,32.4,10.4c6.2,3.1,7.7,3.6,9.6,3.6c3.6,0,5.9-0.9,8.5-3.5c3.1-3,4.2-6.4,3.4-10.3c-1-4.7-2.8-6.7-10.2-10.6c-11.1-5.9-24-10.4-36.5-12.6C136.9,137.3,119.8,137,112.6,138z"/><path fill="#000000" d="M123.2,186.4c-4.8,1.3-10.2,6-11.9,10.6c-2.7,7.3-1.2,13.9,4.3,19.5c3.7,3.7,6.7,4.9,12.5,5c3.7,0,4.5-0.1,7.2-1.4c3.9-1.8,7.2-5,9-8.7c1.2-2.5,1.3-3.2,1.3-7.6c0-4.1-0.2-5.2-1.1-7.1C140.8,188.4,131.7,184.1,123.2,186.4z"/></g></g></g>
</svg>