<?xml version="1.0" encoding="utf-8"?>
<!-- Generator: Adobe Illustrator 16.0.3, SVG Export Plug-In . SVG Version: 6.00 Build 0)  -->
<!DOCTYPE svg PUBLIC "-//W3C//DTD SVG 1.1//EN" "http://www.w3.org/Graphics/SVG/1.1/DTD/svg11.dtd">
<svg version="1.1" id="Layer_1" xmlns="http://www.w3.org/2000/svg" xmlns:xlink="http://www.w3.org/1999/xlink" x="0px" y="0px"
	 width="594px" height="199.14px" viewBox="0 0 594 199.14" enable-background="new 0 0 594 199.14" xml:space="preserve">
<path fill-rule="evenodd" clip-rule="evenodd" d="M384.68,6.38c3.931,0.386,7.847,0.77,11.682,1.854
	c5.933,1.676,11.386,4.296,16.327,7.943c7.048,5.203,12.427,11.79,16.082,19.773c2.498,5.458,4.056,11.17,4.377,17.158
	c0.504,9.389,0.083,18.792,0.22,28.188c0.053,3.683,0.008,7.367-0.524,11.007c-0.994,6.811-3.213,13.218-6.832,19.098
	c-6.317,10.259-15.149,17.484-26.484,21.542c-6.576,2.354-13.386,3.168-20.386,2.648c-9.294-0.69-17.729-3.704-25.306-9.066
	c-8.65-6.122-14.793-14.189-18.438-24.171c-2.151-5.892-3.028-11.966-3.018-18.206c0.014-8.959,0.013-17.918,0.001-26.878
	c-0.012-9.683,2.416-18.698,7.552-26.913c5.772-9.234,13.699-15.995,23.791-20.151c4.255-1.752,8.639-3.04,13.261-3.358
	c0.346-0.024,0.631-0.092,0.736-0.468C380.04,6.38,382.36,6.38,384.68,6.38z M402.234,71.048c0.008,0,0.015,0,0.022,0
	c0-4.72-0.013-9.439,0.005-14.159c0.009-2.093-0.297-4.111-0.943-6.117c-2.938-9.126-12.812-15.281-22.833-12.812
	c-8.813,2.172-14.896,9.755-14.934,18.814c-0.039,9.479-0.008,18.958-0.01,28.438c0,2.011,0.266,3.992,0.884,5.898
	c3.459,10.675,15.078,16.507,25.734,12.254c6.656-2.658,11.908-9.766,12.054-16.958C402.318,81.289,402.234,76.167,402.234,71.048z"
	/>
<path fill-rule="evenodd" clip-rule="evenodd" d="M57.56,6.38c6.047,0.38,11.947,1.428,17.559,3.819
	c12.065,5.14,20.982,13.576,26.633,25.427c3.355,7.037,4.798,14.481,4.764,22.256c-0.041,9.317,0.288,18.646-0.074,27.95
	c-0.816,20.968-10.847,36.138-29.684,45.372c-7.076,3.468-14.681,4.878-22.533,4.508c-15.977-0.753-28.858-7.558-38.644-20.209
	c-4.274-5.525-7.093-11.755-8.789-18.501c-0.899-3.575-1.315-7.233-1.332-10.913C5.415,76.051,5.126,66.002,5.51,55.979
	C6.3,35.318,16.296,20.417,34.713,11.146C40.825,8.069,47.422,6.816,54.2,6.38C55.32,6.38,56.44,6.38,57.56,6.38z M75.329,71.087
	c0-4.757-0.024-9.515,0.008-14.271c0.021-2.973-0.67-5.765-1.94-8.428c-4.459-9.35-15.804-13.642-25.198-9.319
	c-7.481,3.442-11.456,9.517-11.646,17.723c-0.213,9.23-0.053,18.468-0.05,27.703c0.001,3.108,0.603,6.083,1.858,8.941
	c3.934,8.954,14.976,13.629,24.032,10.245c7.684-2.871,13.109-10.335,12.952-18.802C75.259,80.283,75.329,75.685,75.329,71.087z"/>
<path fill-rule="evenodd" clip-rule="evenodd" d="M273.32,6.38c1.388,0.679,2.938,0.559,4.403,0.85
	c7.273,1.447,13.691,4.625,19.345,9.353c7.688,6.431,12.722,14.598,15.244,24.256c1.524,5.834,1.931,11.775,1.185,17.819
	c-1.116,9.044-4.363,17.151-10.045,24.269c-0.635,0.796-0.628,1.306,0.018,2.122c4.879,6.161,8.069,13.102,9.52,20.846
	c0.628,3.353,0.906,6.718,0.888,10.126c-0.033,6.158-0.029,12.318,0.013,18.478c0.006,0.971-0.22,1.292-1.245,1.287
	c-9.439-0.039-18.878-0.046-28.317,0.005c-1.182,0.006-1.375-0.422-1.369-1.456c0.035-6.52,0.054-13.039,0-19.559
	c-0.04-4.823-1.798-8.933-5.469-12.134c-2.336-2.036-5.066-3.124-8.186-3.126c-13.039-0.007-26.078-0.019-39.116,0.024
	c-1.131,0.004-1.37-0.332-1.365-1.398c0.04-9.439,0.042-18.878-0.003-28.317c-0.005-1.091,0.327-1.315,1.355-1.313
	c12.479,0.035,24.967-0.285,37.433,0.12c10.403,0.337,16.283-8.904,15.266-17.62c-0.537-4.591-2.512-8.42-6.294-11.223
	c-2.301-1.706-4.897-2.407-7.725-2.406c-12.839,0.003-25.678-0.017-38.516,0.03c-1.221,0.004-1.53-0.306-1.523-1.523
	c0.053-9.399,0.028-18.798,0.032-28.197c0-0.438,0.046-0.875,0.071-1.313C243.72,6.38,258.52,6.38,273.32,6.38z"/>
<path fill-rule="evenodd" clip-rule="evenodd" d="M540.44,6.38c1.888,0.532,3.856,0.511,5.778,0.866
	c6.958,1.284,13.348,3.92,19.174,7.89c8.475,5.773,14.676,13.441,18.56,22.926c2.16,5.277,3.501,10.787,3.542,16.513
	c0.077,10.837,0.174,21.678-0.009,32.513c-0.18,10.646-3.78,20.21-10.208,28.658c-6.154,8.089-14.082,13.844-23.672,17.236
	c-4.961,1.755-10.099,2.724-15.366,2.749c-11.678,0.055-23.355,0.018-35.034,0.05c-0.882,0.002-1.161-0.225-1.158-1.139
	c0.032-9.599,0.036-19.196-0.004-28.795c-0.004-0.975,0.356-1.087,1.18-1.085c11.079,0.022,22.157,0.063,33.235,0
	c8.78-0.05,14.944-4.231,18.557-12.195c1.106-2.438,1.44-5.055,1.445-7.707c0.018-9.238,0.095-18.478-0.018-27.715
	c-0.106-8.726-4.372-14.831-12.286-18.381c-2.355-1.057-4.903-1.379-7.481-1.38c-11.078-0.003-22.156-0.016-33.234,0.022
	c-1.09,0.004-1.404-0.277-1.399-1.394c0.036-9.877,0.008-19.755-0.001-29.633C514.84,6.38,527.64,6.38,540.44,6.38z"/>
<path fill-rule="evenodd" clip-rule="evenodd" d="M163.64,6.38c1.844,0.544,3.775,0.511,5.655,0.869
	c5.49,1.044,10.66,2.893,15.506,5.667c10.936,6.257,18.531,15.347,22.861,27.144c1.77,4.821,2.757,9.846,2.793,14.99
	c0.073,10.519,0.254,21.043-0.023,31.555c-0.406,15.354-6.794,27.948-18.553,37.794c-5.41,4.53-11.605,7.647-18.38,9.559
	c-4.2,1.185-8.514,1.786-12.889,1.793c-11.399,0.017-22.798,0-34.197,0.03c-0.912,0.003-1.23-0.198-1.226-1.184
	c0.039-9.56,0.04-19.118-0.001-28.678c-0.004-0.996,0.327-1.161,1.221-1.159c10.959,0.028,21.918,0.02,32.877,0.018
	c8.853-0.001,15.638-4.517,18.971-12.682c0.74-1.814,1.215-3.725,1.219-5.7c0.016-10.239,0.068-20.479-0.013-30.717
	c-0.058-7.266-5.919-14.914-12.837-17.142c-2.502-0.806-5.04-1.158-7.652-1.156c-10.799,0.008-21.599-0.013-32.397,0.029
	c-1.108,0.004-1.393-0.298-1.387-1.394c0.052-9.878,0.044-19.757,0.054-29.636C138.04,6.38,150.84,6.38,163.64,6.38z"/>
<path fill-rule="evenodd" clip-rule="evenodd" d="M484.04,6.38c-0.015,1.079-0.041,2.157-0.041,3.236
	c-0.003,41.556-0.009,83.111,0.027,124.667c0.001,1.249-0.345,1.515-1.538,1.508c-9.399-0.05-18.798-0.043-28.197-0.007
	c-0.987,0.003-1.276-0.253-1.275-1.261c0.024-42.396,0.021-84.791,0.023-127.187c0-0.319,0.026-0.638,0.041-0.957
	C463.4,6.38,473.72,6.38,484.04,6.38z"/>
<path fill-rule="evenodd" clip-rule="evenodd" d="M348.92,191.18c-1.495-0.6-3.113-0.834-4.498-1.785
	c-3.319-2.278-5.116-5.552-5.98-9.318c-1.083-4.725-0.868-9.449,0.873-14.024c1.521-3.998,3.997-7.125,8.221-8.525
	c4.059-1.346,7.695-0.723,10.763,2.408c0.193,0.197,0.412,0.367,0.622,0.547c0.028,0.023,0.074,0.026,0.112,0.041
	c0.059-0.042,0.166-0.086,0.166-0.129c-0.009-4.116,0.215-8.236-0.125-12.347c-0.19-2.306-0.888-2.97-3.168-3.237
	c-0.198-0.023-0.396-0.062-0.596-0.066c-0.585-0.016-0.71-0.348-0.692-0.87c0.02-0.554,0.317-0.645,0.78-0.644
	c4.239,0.008,8.479,0.012,12.718-0.004c0.637-0.003,0.859,0.295,0.86,0.867c0,0.36,0.004,0.721,0.004,1.08
	c0.001,11.919,0,23.837,0.004,35.756c0,0.92,0.018,1.84,0.048,2.759c0.078,2.332,0.657,3.022,2.893,3.553
	c0.399,0.094,1.035-0.112,0.989,0.7c-0.042,0.733-0.642,0.649-1.05,0.732c-3.32,0.68-6.648,1.325-9.977,1.968
	c-0.394,0.076-0.81,0.061-0.967,0.539c-0.4,0-0.8,0-1.2,0c-0.548-0.254-0.49-0.744-0.488-1.223c0.007-1.198,0.002-2.397,0.002-3.596
	c-2.176,2.39-4.497,4.271-7.674,4.818C350.68,191.18,349.8,191.18,348.92,191.18z M359.233,173.7c0-2.159-0.077-4.32,0.019-6.475
	c0.144-3.259-1.71-5.167-4.317-6.517c-1.8-0.932-3.911-0.319-4.946,1.292c-0.804,1.253-1.271,2.655-1.531,4.117
	c-0.601,3.364-0.607,6.765-0.431,10.155c0.147,2.823,0.416,5.661,1.859,8.201c0.593,1.044,1.268,2.086,2.546,2.36
	c2.871,0.616,6.78-2.609,6.8-5.581C359.247,178.735,359.234,176.217,359.233,173.7z"/>
<path fill-rule="evenodd" clip-rule="evenodd" d="M547.64,191.18c-0.411-0.729-1.208-0.455-1.812-0.656
	c-4.149-1.382-6.77-4.34-8.115-8.314c-1.978-5.84-1.941-11.735,0.872-17.331c1.957-3.891,5.105-6.679,9.42-7.663
	c5.933-1.352,10.676,1.169,13.482,6.532c1.314,2.513,1.701,5.288,1.975,8.079c0.083,0.851-0.202,1.087-1.046,1.081
	c-5.158-0.035-10.316,0.005-15.475-0.037c-1.004-0.008-1.315,0.231-1.151,1.284c0.508,3.266,1.263,6.408,3.524,8.979
	c3.188,3.624,7.648,3.694,10.889,0.14c0.585-0.643,1.077-1.371,1.616-2.056c0.256-0.325,0.422-0.805,1.008-0.37
	c0.435,0.321,0.639,0.526,0.322,1.121c-1.744,3.274-3.759,6.279-7.253,7.95c-0.719,0.344-1.453,0.649-2.242,0.782
	c-0.33,0.057-0.62,0.117-0.734,0.479C551.16,191.18,549.4,191.18,547.64,191.18z M550.215,170.534c1.276,0,2.555-0.034,3.829,0.014
	c0.701,0.026,0.895-0.243,0.865-0.902c-0.064-1.435,0.01-2.878-0.125-4.305c-0.141-1.5-0.414-2.991-1.235-4.319
	c-1.575-2.548-4.311-2.587-5.949-0.078c-1.787,2.736-2.014,5.809-1.968,8.948c0.008,0.56,0.288,0.652,0.753,0.647
	C547.661,170.524,548.938,170.534,550.215,170.534z"/>
<path fill-rule="evenodd" clip-rule="evenodd" d="M434.84,191.18c-0.483-0.754-1.36-0.506-2.035-0.75
	c-4.883-1.763-7.314-5.53-8.516-10.283c-0.956-3.781-0.951-7.62,0.022-11.385c1.503-5.808,4.979-10.036,10.903-11.522
	c5.894-1.479,10.656,1.133,13.473,6.508c1.316,2.512,1.704,5.287,1.975,8.078c0.083,0.848-0.199,1.088-1.045,1.082
	c-5.157-0.035-10.314,0.009-15.472-0.039c-1.025-0.01-1.312,0.25-1.151,1.281c0.469,3.018,1.105,5.965,3.063,8.425
	c3.808,4.786,9.063,4.384,12.697-0.947c0.371-0.544,0.614-1.433,1.556-0.566c0.277,0.256,0.282,0.395,0.137,0.684
	c-1.986,3.925-4.472,7.333-8.888,8.821c-0.485,0.163-1.18-0.092-1.438,0.614C438.36,191.18,436.6,191.18,434.84,191.18z
	 M437.446,170.534c1.236,0,2.475-0.036,3.71,0.014c0.719,0.03,1-0.182,0.956-0.934c-0.07-1.233-0.013-2.475-0.089-3.708
	c-0.102-1.675-0.356-3.329-1.229-4.81c-1.554-2.639-4.346-2.685-6.01-0.128c-1.786,2.742-1.989,5.816-1.949,8.953
	c0.007,0.58,0.342,0.619,0.78,0.615C434.893,170.528,436.17,170.534,437.446,170.534z"/>
<path fill-rule="evenodd" clip-rule="evenodd" d="M244.25,143.233c3.679,0,7.359-0.004,11.039,0.006
	c0.479,0.001,1.111-0.203,1.139,0.644c0.031,0.944-0.665,0.689-1.177,0.717c-0.519,0.026-1.045-0.023-1.558,0.041
	c-2.047,0.259-3.675,1.428-3.74,3.739c-0.05,1.796-0.134,3.593-0.134,5.392c-0.001,8.599-0.001,17.197,0,25.796
	c0,1.839-0.003,3.675,0.154,5.513c0.184,2.15,1.45,3.51,3.616,3.692c0.716,0.06,1.439,0.058,2.158,0.047
	c0.542-0.009,0.695,0.275,0.683,0.748c-0.012,0.445-0.225,0.653-0.676,0.626c-0.239-0.015-0.48-0.002-0.72-0.002
	c-7.239,0-14.478,0-21.717,0c-0.2,0-0.4-0.012-0.6,0.001c-0.528,0.034-0.847-0.138-0.823-0.734c0.022-0.547,0.355-0.627,0.807-0.639
	c1.073-0.028,2.147,0.075,3.205-0.289c1.646-0.566,2.529-1.769,2.554-3.405c0.087-5.598,0.054-11.197,0.083-16.797
	c0.003-0.526-0.194-0.688-0.703-0.688c-5.04,0.013-10.079,0.014-15.118-0.001c-0.612-0.002-0.73,0.289-0.724,0.812
	c0.072,5.718-0.168,11.438,0.197,17.151c0.104,1.627,1.618,2.988,3.506,3.165c0.715,0.066,1.438,0.064,2.158,0.051
	c0.562-0.011,0.799,0.219,0.79,0.779c-0.009,0.59-0.389,0.596-0.815,0.595c-7.599-0.003-15.198-0.003-22.797,0.001
	c-0.472,0-0.876-0.006-0.884-0.66c-0.008-0.732,0.461-0.695,0.964-0.714c1.03-0.039,2.056,0.05,3.077-0.315
	c1.665-0.596,2.309-1.836,2.467-3.457c0.031-0.318,0.026-0.64,0.026-0.96c0-11.638,0.01-23.276-0.012-34.915
	c-0.005-3.121-1.427-4.501-4.549-4.563c-0.399-0.008-0.8-0.017-1.2-0.004c-0.458,0.016-0.768-0.081-0.774-0.644
	c-0.006-0.604,0.304-0.765,0.828-0.728c0.12,0.009,0.24,0.001,0.36,0.001c7.359-0.001,14.718,0,22.077,0
	c0.12,0,0.241,0.007,0.36-0.001c0.501-0.03,0.852,0.083,0.874,0.696c0.024,0.658-0.369,0.679-0.852,0.678
	c-1.155-0.001-2.302-0.05-3.418,0.428c-1.345,0.576-2.094,1.528-2.195,2.977c-0.365,5.192-0.102,10.394-0.191,15.59
	c-0.013,0.724,0.255,0.979,0.981,0.976c4.879-0.021,9.758-0.025,14.638,0.004c0.761,0.004,0.938-0.273,0.934-0.979
	c-0.032-4.919-0.004-9.839-0.049-14.757c-0.024-2.678-1.475-4.099-4.171-4.223c-0.519-0.023-1.04-0.018-1.56-0.019
	c-0.452-0.001-0.9,0.04-0.883-0.644c0.014-0.597,0.33-0.755,0.849-0.727c0.239,0.013,0.48,0.001,0.72,0.001
	C237.051,143.233,240.651,143.233,244.25,143.233z"/>
<path fill-rule="evenodd" clip-rule="evenodd" d="M393.717,173.913c2.056-2.01,4.068-3.954,6.053-5.926
	c1.183-1.176,2.319-2.398,3.481-3.595c0.513-0.527,0.834-1.155,1.054-1.85c0.484-1.531-0.155-2.663-1.741-3.052
	c-0.427-0.104-0.854-0.213-1.284-0.295c-0.459-0.088-0.527-0.386-0.526-0.79c0.001-0.511,0.298-0.577,0.702-0.574
	c0.96,0.008,1.92,0.001,2.88,0.001c3.319,0,6.64-0.004,9.959,0.005c0.371,0.001,0.838-0.133,0.894,0.5
	c0.043,0.48-0.104,0.767-0.61,0.823c-2.624,0.294-4.483,1.911-6.279,3.636c-1.863,1.79-3.717,3.59-5.589,5.37
	c-0.497,0.474-0.644,0.82-0.171,1.498c3.793,5.444,7.513,10.94,11.294,16.394c0.907,1.308,1.908,2.586,3.695,2.749
	c0.612,0.057,0.507,0.505,0.501,0.892c-0.009,0.657-0.521,0.485-0.879,0.486c-4.959,0.009-9.919,0.006-14.879,0.006
	c-0.08,0-0.16-0.002-0.24-0.001c-0.381,0.004-0.729-0.016-0.738-0.541c-0.01-0.458,0.127-0.708,0.629-0.84
	c1.618-0.424,1.938-1.098,0.995-2.593c-1.802-2.857-3.731-5.634-5.607-8.443c-0.154-0.231-0.277-0.497-0.474-0.685
	c-0.511-0.487-0.581-1.522-1.397-1.524c-0.687-0.001-1.891,1.979-1.889,2.773c0.007,2.28-0.069,4.564,0.051,6.838
	c0.131,2.483,0.705,3.268,2.814,3.607c0.574,0.093,0.571,0.443,0.567,0.86c-0.004,0.51-0.341,0.549-0.732,0.549
	c-5.04-0.003-10.079-0.004-15.119,0.002c-0.457,0.001-0.777-0.075-0.771-0.643c0.005-0.482,0.185-0.665,0.677-0.78
	c1.993-0.468,2.508-1.07,2.697-3.086c0.098-1.033,0.166-2.073,0.167-3.11c0.013-10.6,0.013-21.2,0-31.8
	c-0.002-1.036-0.077-2.077-0.191-3.108c-0.213-1.923-0.693-2.497-2.549-2.966c-0.547-0.139-0.87-0.261-0.803-0.9
	c0.072-0.683,0.555-0.563,0.976-0.564c3.68-0.004,7.36,0.032,11.039-0.025c0.963-0.015,1.199,0.276,1.196,1.208
	c-0.032,9.319-0.021,18.64-0.015,27.959C393.554,172.839,393.449,173.318,393.717,173.913z"/>
<path fill-rule="evenodd" clip-rule="evenodd" d="M506.375,162.011c2.085-2.13,4.031-3.913,6.627-4.68
	c5.253-1.55,10.104,0.822,11.191,6.347c0.351,1.782,0.403,3.569,0.405,5.367c0.007,4.879-0.001,9.758,0.012,14.636
	c0.002,0.758,0.06,1.516,0.131,2.271c0.155,1.63,0.97,2.67,2.674,2.831c0.553,0.052,0.621,0.372,0.617,0.818
	c-0.003,0.49-0.277,0.592-0.696,0.592c-4.998-0.006-9.997-0.004-14.996-0.004c-0.351,0-0.643-0.064-0.639-0.513
	c0.003-0.365-0.031-0.764,0.45-0.851c2.059-0.375,2.717-1.913,2.739-3.676c0.087-6.754,0.263-13.511-0.093-20.263
	c-0.169-3.204-2.857-4.363-5.53-2.405c-1.804,1.322-3.037,2.926-2.947,5.483c0.184,5.192,0.061,10.396,0.054,15.595
	c-0.002,1.004,0.118,1.987,0.288,2.976c0.22,1.273,0.987,1.968,2.18,2.221c0.499,0.105,0.825,0.237,0.8,0.815
	c-0.029,0.655-0.487,0.619-0.938,0.619c-4.839-0.001-9.678,0-14.517-0.001c-0.437,0-0.921,0.08-0.962-0.585
	c-0.034-0.547,0.219-0.751,0.758-0.841c1.49-0.249,2.462-1.054,2.577-2.664c0.053-0.755,0.17-1.51,0.172-2.265
	c0.015-6.519,0.011-13.037,0.008-19.556c0-0.758-0.065-1.51-0.16-2.267c-0.193-1.539-0.938-2.496-2.509-2.732
	c-0.521-0.078-0.937-0.248-0.842-0.908c0.095-0.656,0.596-0.536,1.016-0.536c3.719-0.006,7.438,0.019,11.157-0.021
	c0.821-0.009,1.03,0.291,0.985,1.049C506.333,159.808,506.375,160.757,506.375,162.011z"/>
<path fill-rule="evenodd" clip-rule="evenodd" d="M281.422,185.47c-2.313,1.882-4.567,3.554-7.261,4.553
	c-3.699,1.372-7.188,0.399-8.934-2.579c-1.381-2.356-0.975-5.775,0.961-8.297c2.024-2.635,4.892-4.137,7.708-5.679
	c2.231-1.221,4.543-2.297,6.84-3.395c0.512-0.244,0.723-0.549,0.729-1.094c0.023-2.159,0.016-4.318-0.24-6.466
	c-0.163-1.369-1.716-2.75-3.375-2.967c-1.498-0.195-2.945,0.019-4.257,0.845c-1.195,0.753-1.386,1.64-0.585,2.787
	c0.183,0.262,0.371,0.521,0.581,0.761c1.088,1.239,1.54,2.66,0.863,4.2c-0.672,1.528-1.924,2.324-3.639,2.502
	c-2.876,0.297-5.441-1.378-5.73-4.003c-0.191-1.74,0.528-3.277,1.589-4.634c1.907-2.437,4.557-3.655,7.455-4.406
	c2.809-0.729,5.666-0.972,8.548-0.502c3.674,0.6,6.434,2.47,7.902,5.965c0.498,1.185,0.453,2.514,0.464,3.783
	c0.049,5.157,0.033,10.316,0.059,15.475c0.004,0.796,0.057,1.599,0.174,2.386c0.221,1.479,1.319,1.863,2.484,0.914
	c0.347-0.283,0.572-0.908,1.213-0.283c0.614,0.599,0.097,0.895-0.193,1.281c-2.628,3.505-5.571,4.632-9.444,3.657
	c-1.933-0.486-3.042-1.765-3.609-3.599C281.621,186.335,281.551,185.983,281.422,185.47z M281.461,177.653
	c0-1.518-0.04-3.037,0.014-4.553c0.036-0.992-0.391-0.869-0.965-0.492c-1.766,1.156-3.417,2.451-4.778,4.083
	c-0.959,1.148-1.669,2.39-1.806,3.937c-0.194,2.193,1.212,4.035,3.288,4.187c2.251,0.163,4.247-1.569,4.247-3.688
	C281.461,179.969,281.461,178.81,281.461,177.653z"/>
<path fill-rule="evenodd" clip-rule="evenodd" d="M583.66,164.546c0.001,6.354,0.005,12.709-0.003,19.063
	c-0.002,0.964,0.067,1.915,0.298,2.852c0.379,1.543,1.018,2.131,2.631,2.313c0.57,0.064,1.041,0.1,0.969,0.857
	c-0.073,0.783-0.666,0.547-1.089,0.548c-5.075,0.014-10.151,0.014-15.227-0.001c-0.415-0.001-1.001,0.251-1.065-0.559
	c-0.062-0.784,0.427-0.767,0.973-0.844c1.587-0.225,2.297-0.919,2.68-2.454c0.187-0.747,0.201-1.502,0.202-2.261
	c0.002-11.51,0.003-23.021-0.001-34.53c0-0.718-0.011-1.431-0.179-2.144c-0.455-1.93-0.966-2.465-2.935-2.737
	c-0.555-0.077-0.761-0.228-0.742-0.793c0.02-0.574,0.336-0.626,0.785-0.626c3.956,0.007,7.913,0.029,11.869-0.013
	c1.001-0.011,0.831,0.607,0.831,1.185C583.66,151.119,583.659,157.833,583.66,164.546z"/>
<path fill-rule="evenodd" clip-rule="evenodd" d="M471.724,164.572c1.91-2.165,3.316-4.556,5.681-6.111
	c1.678-1.104,3.431-1.814,5.5-1.469c1.811,0.303,2.797,1.437,3.188,3.12c0.226,0.973,0.221,1.997-0.044,2.974
	c-0.877,3.222-3.963,4.239-6.65,2.205c-0.347-0.263-0.667-0.56-0.999-0.842c-1.303-1.109-2.407-1.063-3.699,0.121
	c-1.46,1.339-1.958,3.137-2.427,4.958c-0.657,2.552-0.545,5.155-0.546,7.751c-0.001,2.719,0.006,5.438,0.041,8.158
	c0.028,2.253,0.895,3.15,3.145,3.363c0.271,0.025,0.576,0.038,0.797,0.171c0.266,0.159,0.194,0.496,0.168,0.772
	c-0.042,0.446-0.379,0.445-0.707,0.445c-5.359,0.001-10.718-0.001-16.077,0.003c-0.419,0-0.684-0.111-0.689-0.6
	c-0.007-0.467,0.122-0.696,0.64-0.804c2.113-0.437,2.449-0.819,2.763-2.963c0.092-0.632,0.189-1.27,0.19-1.905
	c0.012-6.918,0.031-13.837-0.01-20.755c-0.016-2.711-0.376-3.118-2.978-3.952c-0.473-0.151-0.638-0.391-0.603-0.862
	c0.04-0.531,0.412-0.515,0.775-0.515c3.879-0.004,7.758,0.01,11.637-0.015c0.791-0.006,0.921,0.387,0.913,1.047
	C471.71,160.769,471.724,162.67,471.724,164.572z"/>
<path fill-rule="evenodd" clip-rule="evenodd" d="M315.975,164.967c1.516-1.968,2.626-3.763,4.153-5.224
	c1.467-1.405,3.115-2.433,5.163-2.779c3.137-0.532,5.468,1.506,5.247,4.681c-0.061,0.869-0.173,1.755-0.599,2.545
	c-1.211,2.246-3.93,2.813-6.036,1.254c-0.512-0.378-1.003-0.786-1.484-1.202c-0.976-0.843-1.949-0.732-2.935-0.034
	c-1.597,1.132-2.247,2.823-2.73,4.614c-0.683,2.531-0.809,5.116-0.781,7.72c0.03,2.959,0.008,5.918,0.063,8.876
	c0.041,2.222,0.979,3.183,3.175,3.375c0.487,0.043,0.96-0.009,0.958,0.73c-0.003,0.773-0.506,0.667-0.978,0.667
	c-5.158,0.001-10.316,0.002-15.475-0.001c-0.427,0-0.904,0.106-0.917-0.6c-0.01-0.561,0.214-0.722,0.751-0.822
	c1.87-0.35,2.603-1.208,2.639-3.244c0.071-4.077,0.08-8.155,0.087-12.233c0.006-3.599,0.001-7.197-0.049-10.796
	c-0.028-2.06-0.553-2.689-2.516-3.193c-0.542-0.139-1.021-0.224-0.902-0.962c0.124-0.779,0.726-0.489,1.134-0.492
	c3.639-0.021,7.278,0.018,10.916-0.034c0.924-0.014,1.161,0.29,1.134,1.165C315.934,160.85,315.975,162.725,315.975,164.967z"/>
</svg>
